HIERARCHY
ROOT root
{
	OFFSET 0.000000 0.000000 0.000000
	CHANNELS 6 Xposition Yposition Zposition Zrotation Yrotation Xrotation
	JOINT lhip
	{
		OFFSET 0.058581 -0.082280 -0.017664
		CHANNELS 3 Zrotation Yrotation Xrotation
		JOINT lknee
		{
			OFFSET 0.043451 -0.386469 0.008037
			CHANNELS 3 Zrotation Yrotation Xrotation
			JOINT lankle
			{
				OFFSET -0.014790 -0.426874 -0.037428
				CHANNELS 3 Zrotation Yrotation Xrotation
				JOINT ltoe
				{
					OFFSET 0.041054 -0.060286 0.122042
					CHANNELS 3 Zrotation Yrotation Xrotation
					End Site
					{
						OFFSET 0.000000 0.000000 0.000000
					}
				}
			}
		}
	}
	JOINT rhip
	{
		OFFSET -0.060310 -0.090513 -0.013543
		CHANNELS 3 Zrotation Yrotation Xrotation
		JOINT rknee
		{
			OFFSET -0.043257 -0.383688 -0.004843
			CHANNELS 3 Zrotation Yrotation Xrotation
			JOINT rankle
			{
				OFFSET 0.019056 -0.420046 -0.034562
				CHANNELS 3 Zrotation Yrotation Xrotation
				JOINT rtoe
				{
					OFFSET -0.034840 -0.062106 0.130323
					CHANNELS 3 Zrotation Yrotation Xrotation
					End Site
					{
						OFFSET 0.000000 0.000000 0.000000
					}
				}
			}
		}
	}
	JOINT lowerback
	{
		OFFSET 0.004439 0.124404 -0.038385
		CHANNELS 3 Zrotation Yrotation Xrotation
		JOINT upperback
		{
			OFFSET 0.004488 0.137956 0.026820
			CHANNELS 3 Zrotation Yrotation Xrotation
			JOINT chest
			{
				OFFSET -0.002265 0.056032 0.002855
				CHANNELS 3 Zrotation Yrotation Xrotation
				JOINT lowerneck
				{
					OFFSET -0.013390 0.211636 -0.033468
					CHANNELS 3 Zrotation Yrotation Xrotation
					JOINT upperneck
					{
						OFFSET 0.010113 0.088937 0.050410
						CHANNELS 3 Zrotation Yrotation Xrotation
						End Site
						{
							OFFSET 0.000000 0.000000 0.000000
						}
					}
				}
				JOINT lclavicle
				{
					OFFSET 0.071702 0.114000 -0.018898
					CHANNELS 3 Zrotation Yrotation Xrotation
					JOINT lshoulder
					{
						OFFSET 0.122921 0.045205 -0.019046
						CHANNELS 3 Zrotation Yrotation Xrotation
						JOINT lelbow
						{
							OFFSET 0.255332 -0.015649 -0.022946
							CHANNELS 3 Zrotation Yrotation Xrotation
							JOINT lwrist
							{
								OFFSET 0.265709 0.012698 -0.007375
								CHANNELS 3 Zrotation Yrotation Xrotation
								End Site
								{
									OFFSET 0.000000 0.000000 0.000000
								}
							}
						}
					}
				}
				JOINT rclavicle
				{
					OFFSET -0.082954 0.112472 -0.023707
					CHANNELS 3 Zrotation Yrotation Xrotation
					JOINT rshoulder
					{
						OFFSET -0.113228 0.046853 -0.008472
						CHANNELS 3 Zrotation Yrotation Xrotation
						JOINT relbow
						{
							OFFSET -0.260127 -0.014369 -0.031269
							CHANNELS 3 Zrotation Yrotation Xrotation
							JOINT rwrist
							{
								OFFSET -0.269108 0.006794 -0.006027
								CHANNELS 3 Zrotation Yrotation Xrotation
								End Site
								{
									OFFSET 0.000000 0.000000 0.000000
								}
							}
						}
					}
				}
			}
		}
	}
}
MOTION
Frames: 5
Frame Time: 0.033333
-2.054029 0.630713 1.001299 35.460089 -4.522278 88.965078 0.856646 -2.698296 -6.905349 -3.085479 -2.900675 16.169803 3.181133 8.619303 -12.781352 0.000000 -0.000000 0.000000 -1.544157 -10.129389 -1.148438 -6.161651 -15.443900 9.688358 -0.457770 -21.105178 -11.689083 0.000000 -0.000000 0.000000 0.723549 3.554274 9.467651 -2.248292 0.317722 -1.827576 1.749633 1.029314 0.204544 -0.287163 18.921664 -9.569595 -3.360073 23.821658 -5.288142 -22.401310 -2.078624 -2.255808 -47.646910 -13.330329 3.287737 15.661390 -31.144071 -4.678226 4.667133 -2.350805 -12.749727 16.848227 2.940785 4.467785 46.822817 4.496125 10.870115 -11.251004 22.974834 2.157719 2.781261 -0.613887 -2.878674 
-2.059965 0.634017 1.000433 41.639131 -4.208376 88.980346 1.543888 0.279732 -5.513176 -2.444115 2.729988 16.146895 3.210850 10.872871 -13.405839 0.000000 -0.000000 0.000000 -0.908802 -10.651212 -1.443759 -6.339797 -17.260173 10.562777 -1.077389 -22.077780 -11.478530 0.000000 -0.000000 0.000000 0.188270 2.869668 9.314147 -1.762683 0.205096 -1.752730 2.224831 0.543393 0.172911 0.255623 16.933333 -9.958312 -3.235553 22.479984 -4.862304 -22.279578 -1.117407 -1.941508 -48.177115 -12.882249 2.200616 16.305432 -30.439937 -6.214562 4.397542 -1.943540 -14.453235 17.235546 2.815715 3.565556 45.858848 6.547014 10.250815 -12.387884 22.137572 1.103287 2.345756 -0.842556 -1.302262 
-2.064410 0.638429 0.999689 47.591777 -3.846522 89.278999 2.444066 2.603584 -5.098651 -1.974283 6.707805 18.459476 3.414994 12.403775 -14.191265 0.000000 -0.000000 0.000000 -0.465767 -11.102098 -1.967438 -6.449450 -18.227326 11.512787 -1.524526 -22.538953 -11.517551 0.000000 -0.000000 0.000000 -0.081424 2.224871 8.876041 -1.349992 -0.282618 -1.870440 2.257269 0.379489 0.296166 0.929579 15.007972 -10.211814 -3.039541 20.586699 -4.451780 -22.331765 -0.424652 -1.348031 -48.476665 -12.078406 1.286067 16.754156 -29.211283 -6.920483 5.578110 -1.687907 -14.467065 18.112564 2.679643 2.836752 45.151395 8.621826 9.195437 -13.889243 21.651037 -0.944840 -0.008053 -0.433361 -0.337083 
-2.067675 0.644123 0.999776 53.293209 -3.526452 89.648414 2.931348 3.578301 -5.181056 -1.523070 8.079249 20.911206 2.922925 13.414706 -14.316405 0.000000 -0.000000 0.000000 -0.127126 -11.088244 -2.413800 -6.826983 -18.870844 12.448779 -1.923632 -23.051179 -11.348023 0.000000 -0.000000 0.000000 -0.305152 2.017072 8.400712 -0.941867 -0.648682 -1.745607 2.242340 -0.029681 0.414373 1.374095 13.106294 -10.790789 -2.805645 18.296608 -4.050228 -22.433950 -0.291246 -0.921212 -48.909675 -11.461319 0.842476 16.541600 -25.979669 -6.799583 5.920913 -2.003255 -14.524008 18.807967 2.482105 1.751898 44.911843 10.149583 8.242529 -15.747848 21.888737 -3.993439 0.071521 -0.288923 -2.233431 
-2.068954 0.650835 1.000635 58.643536 -3.220661 90.090819 3.073354 4.040373 -4.828289 -1.497198 8.049580 20.800936 2.393269 12.318435 -12.373947 0.000000 -0.000000 0.000000 -0.114609 -11.397744 -2.284523 -6.368332 -19.605475 12.053487 -1.797524 -23.071762 -10.391721 0.000000 -0.000000 0.000000 -0.338183 2.263329 9.064579 -0.804888 -0.164985 -3.053730 2.386936 -0.828368 0.291725 1.786859 11.028406 -10.936629 -2.700615 15.796560 -3.915037 -22.632944 0.690963 -1.151395 -49.870484 -10.672170 0.633057 14.647289 -23.144729 -4.423595 5.472380 -1.360200 -13.113241 19.204358 1.409009 0.717184 45.084083 11.191535 7.278478 -17.400712 22.842938 -7.739473 -2.705489 -0.188022 -3.430983 
